<?xml version="1.0" encoding="UTF-8" standalone="no"?>
<!-- Created with Inkscape (http://www.inkscape.org/) -->

<svg
   version="1.1"
   id="svg840"
   xml:space="preserve"
   width="179.524"
   height="38.352135"
   viewBox="0 0 179.524 38.352135"
   xmlns="http://www.w3.org/2000/svg"
   xmlns:svg="http://www.w3.org/2000/svg"><defs
     id="defs844"><clipPath
       clipPathUnits="userSpaceOnUse"
       id="clipPath858"><path
         d="M 0,28.764 H 134.643 V 0 H 0 Z"
         id="path856" /></clipPath></defs><g
     id="g846"
     transform="matrix(1.3333333,0,0,-1.3333333,0,38.352133)"><g
       id="g848"
       transform="translate(24.291,28.1988)"><path
         d="m 0,0 v -27.634 h 11.849 v 3.814 H 4.387 v 8.773 h 6.561 v 3.649 H 4.387 v 7.586 h 6.971 V 0 Z"
         style="fill:#ffffff;fill-opacity:1;fill-rule:nonzero;stroke:none"
         id="path850" /></g><g
       id="g852"><g
         id="g854"
         clip-path="url(#clipPath858)"><g
           id="g860"
           transform="translate(42.4376,28.199)"><path
             d="m 0,0 v -18.204 c 0,-4.469 1.395,-5.903 3.116,-5.903 1.928,0 3.198,1.393 3.198,5.903 V 0 h 4.387 v -17.466 c 0,-7.134 -2.829,-10.496 -7.585,-10.496 -5.043,0 -7.503,3.444 -7.503,10.291 V 0 Z"
             style="fill:#ffffff;fill-opacity:1;fill-rule:nonzero;stroke:none"
             id="path862" /></g><path
           d="m 64.413,13.07 h -8.527 v 3.198 h 8.527 z"
           style="fill:#ffffff;fill-opacity:1;fill-rule:nonzero;stroke:none"
           id="path864" /><g
           id="g866"
           transform="translate(74.9787,4.0505)"><path
             d="m 0,0 c 2.829,0 3.731,4.961 3.731,10.496 0,5.002 -0.82,10.168 -3.772,10.168 -2.911,0 -3.936,-5.125 -3.895,-10.25 C -3.977,4.961 -2.952,0 -0.041,0 Z m -0.246,-3.813 c -5.493,0 -8.24,5.822 -8.24,14.186 0,8.282 3.115,14.104 8.691,14.104 5.781,0 8.077,-6.314 8.077,-13.776 0,-10.414 -3.648,-14.514 -8.487,-14.514 z"
             style="fill:#ffffff;fill-opacity:1;fill-rule:nonzero;stroke:none"
             id="path868" /></g><g
           id="g870"
           transform="translate(85.1535,5.239)"><path
             d="m 0,0 c 1.025,-0.615 2.829,-1.106 4.265,-1.106 2.706,0 4.181,1.557 4.181,3.853 0,2.214 -1.352,3.485 -3.608,5.043 -3.074,1.968 -5.207,4.715 -5.207,7.708 0,4.306 2.911,7.708 8.077,7.708 1.764,0 3.362,-0.532 4.101,-0.983 l -0.78,-3.773 c -0.779,0.492 -1.926,0.944 -3.403,0.944 -2.501,0 -3.689,-1.682 -3.689,-3.363 0,-2.132 1.106,-3.116 3.935,-4.92 3.485,-2.296 4.879,-4.961 4.879,-7.913 0,-4.961 -3.525,-8.118 -8.486,-8.118 -2.051,0 -4.142,0.574 -5.002,1.149 z"
             style="fill:#ffffff;fill-opacity:1;fill-rule:nonzero;stroke:none"
             id="path872" /></g><g
           id="g874"
           transform="translate(104.547,28.199)"><path
             d="M 0,0 V -11.438 H 6.561 V 0 h 4.386 V -27.634 H 6.561 v 12.177 H 0 v -12.177 h -4.387 l 0,27.634 z"
             style="fill:#ffffff;fill-opacity:1;fill-rule:nonzero;stroke:none"
             id="path876" /></g><g
           id="g878"
           transform="translate(128.1886,11.1843)"><path
             d="m 0,0 -1.148,6.355 c -0.37,1.804 -0.739,4.346 -1.025,6.273 H -2.296 C -2.583,10.701 -2.993,8.036 -3.321,6.314 L -4.552,0 Z m -5.043,-3.444 -1.477,-7.175 h -4.263 l 6.149,27.634 H 0.491 L 6.19,-10.619 H 1.927 L 0.45,-3.444 Z"
             style="fill:#ffffff;fill-opacity:1;fill-rule:nonzero;stroke:none"
             id="path880" /></g><g
           id="g882"
           transform="translate(3.85,6.925)"><path
             d="m 0,0 c -4.583,0 -3.346,3.909 -0.297,7.421 0,0 -3.402,-5.343 -0.198,-5.343 4.23,0 8.621,4.208 12.31,8.806 L 12.764,7.421 C 9.301,3.933 4.952,0 0,0"
             style="fill:#ffffff;fill-opacity:1;fill-rule:nonzero;stroke:none"
             id="path884" /></g><g
           id="g886"
           transform="translate(3.85,6.925)"><path
             d="m 0,0 c 4.952,0 9.301,3.933 12.764,7.421 l -0.949,3.463 C 8.126,6.286 3.735,2.078 -0.495,2.078 c -3.204,0 0.198,5.343 0.198,5.343 C -3.346,3.909 -4.583,0 0,0 M 6.293,8.134 4.255,9.835 c 3.691,3.499 4.255,5.679 3.532,6.268 -0.198,0.161 -0.411,0.257 -0.687,0.257 -0.478,0 -1.145,-0.289 -2.252,-1.023 0.732,1.074 2.211,1.775 3.467,1.775 0.964,0 1.797,-0.413 2.059,-1.386 C 10.967,13.522 7.815,9.877 6.293,8.134 M 7.05,2.238 C 5.713,1.351 4.425,0.711 3.163,0.31 3.185,-1.694 2.811,-3.943 1.682,-6.432 H 6.036 C 7.583,-3.019 7.713,-0.059 7.348,2.44 7.249,2.372 7.15,2.304 7.05,2.238 M 1.682,7.421 c -1.251,3.855 -3.802,7.286 0,13.853 H 6.036 C 3.312,16.569 3.849,13.474 4.833,10.679 4.611,10.454 4.374,10.221 4.119,9.979 L 3.957,9.826 4.128,9.683 5.699,8.381 C 5.817,8.065 5.932,7.741 6.036,7.421 6.215,6.868 6.416,6.27 6.611,5.627 6.318,5.376 6.029,5.137 5.741,4.913 4.758,4.147 3.804,3.546 2.882,3.113 2.576,4.765 2.077,6.202 1.682,7.421"
             style="fill:#ffffff;fill-opacity:1;fill-rule:nonzero;stroke:none"
             id="path888" /></g></g></g></g></svg>
